Coordinates
version=1
nRows=21
nColumns=22
inDegrees=yes

Units are S.I. units (second, meters, Newtons, ...)
If the header above contains a line with 'inDegrees', this indicates whether rotational values are in degrees (yes) or radians (no).

endheader
time	pelvis_tilt	pelvis_list	pelvis_rotation	pelvis_tx	pelvis_ty	pelvis_tz	hip_flexion_r	hip_adduction_r	hip_rotation_r	knee_angle_r	ankle_angle_r	subtalar_angle_r	hip_flexion_l	hip_adduction_l	hip_rotation_l	knee_angle_l	ankle_angle_l	subtalar_angle_l	lumbar_extension	lumbar_bending	lumbar_rotation
      0.01000000	      0.77421247	     -2.75836853	     -5.72182875	      1.05898417	      0.92601593	      0.18536062	     -4.45465523	      2.93282395	      1.04720432	     -4.91551407	      4.02851427	      2.24772283	     -3.51266181	     -3.09206607	    -14.13636641	     -9.19738453	      8.85983532	     -0.24020323	     -4.00783316	     -0.47916423	      2.72028552
      0.02000000	      0.77699666	     -2.75979986	     -5.71695966	      1.05896368	      0.92602191	      0.18534309	     -4.45617149	      2.93401554	      1.04726150	     -4.91658525	      4.02815560	      2.24791581	     -3.51404209	     -3.09284924	    -14.13655284	     -9.19726382	      8.85968303	     -0.24038220	     -4.00172148	     -0.48174279	      2.72008920
      0.03000000	      0.77964687	     -2.76123904	     -5.70990907	      1.05893473	      0.92602910	      0.18532437	     -4.45720056	      2.93567494	      1.04656867	     -4.91752427	      4.02782254	      2.24790064	     -3.51559940	     -3.09385595	    -14.13698375	     -9.19478332	      8.85952804	     -0.24068388	     -3.99456402	     -0.48618098	      2.71916694
      0.04000000	      0.78175021	     -2.76237518	     -5.70091572	      1.05889465	      0.92603695	      0.18530324	     -4.45698546	      2.93733668	      1.04449794	     -4.91816471	      4.02741558	      2.24752692	     -3.51689329	     -3.09448463	    -14.13744093	     -9.18933184	      8.85908677	     -0.24114844	     -3.98736310	     -0.49167595	      2.71724050
      0.05000000	      0.78294663	     -2.76295243	     -5.69079708	      1.05884244	      0.92604520	      0.18528046	     -4.45487855	      2.93871582	      1.04002254	     -4.91887629	      4.02670047	      2.24655623	     -3.51757793	     -3.09448426	    -14.13721605	     -9.18060782	      8.85781537	     -0.24186105	     -3.98091502	     -0.49811138	      2.71400605
      0.06000000	      0.77460912	     -2.75428942	     -5.67526949	      1.05880027	      0.92604474	      0.18522989	     -4.43709971	      2.92966069	      0.99177981	     -4.92707411	      4.02086591	      2.23593315	     -3.51999597	     -3.07999795	    -14.11110276	     -9.14260797	      8.83898624	     -0.24750428	     -3.95915823	     -0.50858813	      2.68667770
      0.07000000	      0.77763732	     -2.75554688	     -5.66537141	      1.05871511	      0.92605659	      0.18521541	     -4.43413564	      2.93273098	      0.99177305	     -4.92949792	      4.02119201	      2.23508095	     -3.51718285	     -3.08153164	    -14.10923003	     -9.14124373	      8.83720983	     -0.24810487	     -3.96098259	     -0.51640790	      2.68968876
      0.08000000	      0.78063050	     -2.75677773	     -5.65766422	      1.05861632	      0.92606908	      0.18520151	     -4.42893343	      2.93468960	      0.98895354	     -4.93341161	      4.02062108	      2.23368357	     -3.51378258	     -3.08320465	    -14.10648628	     -9.13899291	      8.83453174	     -0.24889773	     -3.96498665	     -0.52358104	      2.69249355
      0.09000000	      0.78362641	     -2.75794127	     -5.65029784	      1.05850473	      0.92608274	      0.18519217	     -4.42084632	      2.93741115	      0.98229752	     -4.94170333	      4.01850539	      2.23140753	     -3.50949770	     -3.08507385	    -14.10211482	     -9.13640859	      8.83016948	     -0.25007232	     -3.97260785	     -0.53194687	      2.69684665
      0.10000000	      0.79153528	     -2.75749389	     -5.64579479	      1.05837634	      0.92610478	      0.18516886	     -4.39649602	      2.93655933	      0.94166569	     -4.98955910	      4.00879512	      2.21977033	     -3.50607977	     -3.08320996	    -14.07897427	     -9.14293567	      8.80959216	     -0.25556532	     -3.98779292	     -0.53823846	      2.71069708
      0.11000000	      0.79284305	     -2.75913813	     -5.64182361	      1.05826225	      0.92611501	      0.18516829	     -4.39053783	      2.93999577	      0.93869330	     -4.98906939	      4.00942058	      2.21888669	     -3.50148966	     -3.08551752	    -14.08001114	     -9.13754007	      8.80913107	     -0.25614234	     -3.99455954	     -0.54512313	      2.71178480
      0.12000000	      0.80096509	     -2.76167440	     -5.63828722	      1.05811949	      0.92613428	      0.18516316	     -4.36984904	      2.94397593	      0.90987972	     -5.02894698	      4.00554233	      2.21004392	     -3.49714338	     -3.08867792	    -14.06922380	     -9.14444684	      8.79866617	     -0.26068259	     -4.01468625	     -0.55194352	      2.72808319
      0.13000000	      0.80221231	     -2.76344249	     -5.63620288	      1.05800149	      0.92614426	      0.18516804	     -4.36345351	      2.94750509	      0.90728547	     -5.02877049	      4.00598715	      2.20929495	     -3.49229181	     -3.09146001	    -14.07011376	     -9.13983975	      8.79849285	     -0.26120311	     -4.02362195	     -0.55866854	      2.72976107
      0.14000000	      0.81264790	     -2.76727057	     -5.63362806	      1.05785277	      0.92616784	      0.18517245	     -4.34558465	      2.95330657	      0.88997235	     -5.06838594	      4.00179602	      2.20288491	     -3.48884519	     -3.09692940	    -14.06237682	     -9.14991805	      8.79192375	     -0.26470134	     -4.04867552	     -0.56566538	      2.74935783
      0.15000000	      0.81380952	     -2.76912076	     -5.63437329	      1.05773258	      0.92617710	      0.18518108	     -4.33875693	      2.95677735	      0.88702365	     -5.06778311	      4.00230155	      2.20218601	     -3.48406208	     -3.09951879	    -14.06313264	     -9.14572847	      8.79182451	     -0.26521644	     -4.05896811	     -0.57153701	      2.75073076
      0.16000000	      0.82500571	     -2.77348048	     -5.63162448	      1.05758815	      0.92620304	      0.18518912	     -4.32253961	      2.96326188	      0.87328577	     -5.10670014	      3.99879219	      2.19608938	     -3.48226858	     -3.10577785	    -14.05749928	     -9.15475029	      8.78602486	     -0.26886169	     -4.08486897	     -0.57805941	      2.76869528
      0.17000000	      0.82606753	     -2.77520077	     -5.63285017	      1.05747297	      0.92621450	      0.18519944	     -4.31625961	      2.96664081	      0.87047635	     -5.10542154	      3.99939739	      2.19537168	     -3.47775983	     -3.10809712	    -14.05820880	     -9.15061074	      8.78588932	     -0.26942742	     -4.09477846	     -0.58340778	      2.76945223
      0.18000000	      0.83651397	     -2.77953468	     -5.62914049	      1.05733865	      0.92624211	      0.18520620	     -4.30343921	      2.97305838	      0.85638038	     -5.13739317	      3.99647863	      2.18830921	     -3.47656249	     -3.11399261	    -14.05243578	     -9.15722952	      8.77901296	     -0.27415749	     -4.11871897	     -0.58874427	      2.78076033
      0.19000000	      0.83744500	     -2.78095331	     -5.62861292	      1.05723405	      0.92625856	      0.18521771	     -4.29831633	      2.97651611	      0.85423619	     -5.13513270	      3.99681050	      2.18766625	     -3.47260187	     -3.11611245	    -14.05303066	     -9.15316900	      8.77878826	     -0.27473469	     -4.12694387	     -0.59405332	      2.78093558
      0.20000000	      0.83917176	     -2.78272432	     -5.62539608	      1.05712626	      0.92627743	      0.18523177	     -4.29319252	      2.98055454	      0.85190675	     -5.13523053	      3.99605411	      2.18670529	     -3.46815562	     -3.11955669	    -14.05270951	     -9.14971228	      8.77764318	     -0.27560681	     -4.13666511	     -0.60071231	      2.78194666
      0.21000000	      0.84154583	     -2.78472054	     -5.62176960	      1.05701723	      0.92629944	      0.18524691	     -4.28813678	      2.98497099	      0.84837903	     -5.13660670	      3.99396062	      2.18539141	     -3.46350873	     -3.12361131	    -14.05074567	     -9.14804614	      8.77524513	     -0.27680857	     -4.14778558	     -0.60722902	      2.78298707
